<svg xmlns="http://www.w3.org/2000/svg" viewBox="0 0 40 67"><path stroke="currentColor" stroke-width="1.8" fill="currentColor" d="M20.29.27l18.64 10.78a1 1 0 0 1 .48.84 1 1 0 0 1-.48.84l-17.214 9.93L38.93 32.6a1 1 0 0 1 .48.84V55a1 1 0 0 1-.48.84 1 1 0 0 1-.16.084L20.26 66.61a.94.94 0 0 1-.48.13 1 1 0 0 1-.49-.13L.62 55.83A1 1 0 0 1 .14 55a1 1 0 0 1 .48-.84l17.207-9.945L.62 34.28a1 1 0 0 1-.48-.84V11.89a1 1 0 0 1 .375-.767l.105-.073L19.29.27a1 1 0 0 1 1 0zm-.513 45.071L3.05 55l16.73 9.66 16.698-9.648-16.701-9.671zm17.693-10.22l-15.734 9.085 15.734 9.099V35.121zM20.779 24.366l.001 18.164 15.72-9.09-15.721-9.074zm-18.7-10.795L2.08 32.88l16.72 9.65V23.22l-9.665-5.579-7.056-4.07zM19.78 2.23L3.062 11.882l14.007 8.093 2.711 1.565 16.72-9.65-16.72-9.66z"/></svg>