<svg xmlns="http://www.w3.org/2000/svg" viewBox="0 0 40 68"><path fill="currentColor" stroke="currentColor" d="M20.65.63l18.64 10.78a1 1 0 0 1 .48.84 1 1 0 0 1-.48.84l-17.201 9.922L39.29 33a1 1 0 0 1 .48.84v21.51a1 1 0 0 1-.48.84L20.62 67a.94.94 0 0 1-.48.1 1 1 0 0 1-.49-.13L1 56.19a1 1 0 0 1-.49-.84 1 1 0 0 1 .49-.84l17.196-9.931L1 34.64a1 1 0 0 1-.5-.84V12.25a1 1 0 0 1 .5-.84L19.65.63a1 1 0 0 1 1 0zm-.513 45.07L3.41 55.35 20.14 65l16.713-9.657zM37.83 35.518l-15.734 9.051L37.83 53.65zM21.139 24.726l.001 18.164 15.72-9.09-.149-.087zM2.44 13.93v19.31l16.729 9.648V23.581l-3.716-2.146zm17.7-11.34L3.431 12.237l15.57 9.005 1.139.658 16.72-9.65z"/></svg>
