<?xml version="1.0" standalone="no"?>
<!DOCTYPE svg PUBLIC "-//W3C//DTD SVG 20010904//EN"
 "http://www.w3.org/TR/2001/REC-SVG-20010904/DTD/svg10.dtd">
<svg version="1.0" xmlns="http://www.w3.org/2000/svg"
 width="1088.000000pt" height="1088.000000pt" viewBox="0 0 1088.000000 1088.000000"
 preserveAspectRatio="xMidYMid meet">
<metadata>
Created by potrace 1.14, written by Peter Selinger 2001-2017
</metadata>
<g transform="translate(0.000000,1088.000000) scale(0.100000,-0.100000)"
fill="#000000" stroke="none">
<path d="M5396 10873 c-11 -3 -37 -16 -58 -29 -21 -13 -40 -24 -43 -24 -3 0
-31 -16 -61 -35 -30 -19 -56 -35 -58 -35 -4 0 -191 -108 -226 -130 -8 -5 -53
-31 -99 -57 -104 -59 -142 -81 -363 -208 -95 -55 -174 -103 -176 -107 -2 -5
-8 -8 -13 -8 -8 0 -40 -17 -152 -84 -190 -111 -358 -206 -367 -206 -5 0 -10
-3 -10 -8 0 -4 -17 -16 -37 -27 -21 -11 -103 -58 -183 -104 -80 -46 -165 -95
-190 -109 -25 -14 -78 -45 -118 -69 -41 -24 -75 -43 -78 -43 -2 0 -27 -15 -56
-33 -29 -19 -60 -37 -68 -40 -8 -4 -28 -15 -45 -25 -16 -10 -51 -30 -77 -45
-25 -14 -63 -36 -85 -49 -21 -14 -45 -28 -53 -32 -8 -4 -24 -12 -35 -19 -40
-24 -227 -133 -263 -152 -20 -11 -39 -22 -42 -25 -3 -3 -23 -14 -45 -25 -57
-29 -119 -95 -139 -146 -15 -41 -16 -179 -14 -1820 l3 -1776 30 -49 c24 -38
50 -61 115 -101 47 -29 90 -57 97 -63 7 -5 17 -10 22 -10 6 0 35 -16 65 -35
30 -19 59 -35 65 -35 5 0 11 -3 13 -7 2 -5 21 -17 43 -29 38 -20 323 -184 355
-204 18 -11 132 -77 210 -121 30 -17 65 -37 77 -45 22 -14 34 -21 148 -85 33
-18 62 -37 63 -41 2 -4 8 -8 12 -8 5 0 59 -29 121 -65 61 -36 114 -65 116 -65
3 0 17 -8 31 -19 15 -10 47 -29 72 -43 25 -14 101 -57 169 -97 68 -39 127 -71
131 -71 5 0 10 -3 12 -8 4 -9 286 -172 299 -172 5 0 9 -4 9 -10 0 -5 6 -10 14
-10 7 0 19 -7 26 -15 7 -9 15 -13 18 -11 3 3 17 -3 31 -13 14 -10 43 -28 64
-40 87 -49 111 -63 212 -122 l106 -62 -28 -16 c-15 -10 -35 -20 -43 -24 -8 -4
-29 -16 -46 -26 -105 -64 -607 -351 -614 -351 -5 0 -10 -3 -12 -8 -2 -5 -426
-252 -543 -316 -11 -6 -22 -13 -25 -16 -6 -6 -86 -50 -117 -65 -13 -5 -23 -13
-23 -17 0 -5 -4 -8 -9 -8 -8 0 -151 -80 -161 -90 -3 -3 -23 -14 -45 -26 -71
-37 -770 -442 -782 -454 -7 -6 -13 -8 -13 -5 0 3 -20 -8 -45 -25 -25 -17 -45
-27 -45 -23 0 4 -4 3 -8 -3 -4 -6 -25 -21 -47 -32 -52 -27 -108 -87 -128 -137
-18 -47 -15 -126 6 -176 18 -44 79 -102 143 -136 27 -14 78 -43 113 -64 34
-22 67 -39 71 -39 5 0 10 -3 12 -7 1 -5 19 -16 38 -25 19 -10 44 -24 55 -30
47 -31 122 -74 145 -86 14 -6 43 -23 65 -37 22 -14 47 -28 55 -32 8 -3 39 -21
68 -40 29 -18 54 -33 57 -33 2 0 39 -20 81 -45 41 -25 80 -45 85 -45 5 0 9 -3
9 -7 0 -5 10 -13 23 -19 49 -23 112 -59 115 -66 2 -5 9 -8 16 -8 7 0 18 -6 25
-12 6 -7 15 -13 19 -13 4 0 18 -8 32 -17 54 -34 273 -158 281 -158 4 0 9 -3
11 -8 2 -4 93 -58 203 -121 110 -63 208 -121 218 -129 9 -8 17 -12 17 -8 0 4
20 -7 44 -24 25 -16 47 -30 49 -30 3 0 51 -27 107 -60 56 -33 103 -60 105 -60
2 0 33 -18 70 -41 37 -22 83 -49 101 -60 19 -10 50 -28 69 -39 19 -11 51 -29
70 -40 87 -50 103 -59 153 -89 29 -17 57 -31 62 -31 6 0 10 -4 10 -10 0 -5 4
-10 9 -10 5 0 55 -27 111 -60 56 -33 105 -60 110 -60 5 0 10 -4 12 -8 6 -15
101 -53 142 -57 22 -2 59 1 81 8 22 6 43 10 48 9 4 -1 7 2 7 8 0 5 4 10 9 10
7 0 214 118 451 258 52 31 97 57 100 57 3 0 16 8 30 17 14 9 68 41 120 70 52
30 226 131 385 223 160 93 303 175 320 184 16 9 35 22 43 28 7 7 18 13 23 13
5 0 45 22 89 50 44 27 80 46 80 42 0 -4 4 -2 8 3 4 6 59 41 122 77 63 36 131
75 150 86 19 11 73 43 120 70 47 27 130 75 185 106 55 32 114 67 132 77 17 10
50 29 72 43 22 15 43 26 46 26 3 0 37 20 77 45 40 25 78 45 84 45 7 0 14 3 16
8 4 9 216 132 228 132 5 0 10 3 12 8 2 4 23 18 48 32 25 13 60 37 78 54 l32
29 0 1860 0 1860 -38 36 c-21 20 -56 45 -78 57 -21 11 -121 69 -222 127 -100
59 -187 107 -192 107 -6 0 -10 5 -10 10 0 6 -4 10 -9 10 -5 0 -60 30 -123 66
-62 37 -151 88 -198 115 -47 27 -92 54 -100 59 -8 5 -76 44 -150 86 -74 43
-157 92 -185 109 -27 17 -61 36 -75 43 -14 7 -38 21 -55 32 -29 18 -50 31
-105 61 -14 8 -110 64 -213 124 -104 61 -205 119 -225 131 -20 11 -152 87
-292 169 -140 81 -294 171 -342 198 -48 28 -85 54 -83 58 3 3 44 29 92 57 49
27 171 97 272 156 101 58 188 106 192 106 5 0 9 3 9 8 0 4 10 12 23 18 51 24
142 78 145 85 2 5 12 9 23 9 10 0 19 5 19 10 0 6 4 10 9 10 8 0 152 80 161 90
3 3 16 11 30 17 14 7 117 66 230 133 113 66 217 125 233 131 15 6 27 15 27 21
0 5 4 7 9 3 5 -3 12 -1 16 4 3 6 40 29 83 53 42 24 86 48 97 55 11 7 28 16 38
19 9 3 17 10 17 15 0 5 5 9 10 9 10 0 169 88 180 100 6 6 83 48 117 64 13 6
23 14 23 19 0 4 4 7 9 7 8 0 313 173 423 240 18 11 40 23 48 27 38 17 127 77
142 96 15 19 18 44 18 160 l0 139 -37 34 c-21 18 -41 34 -45 34 -3 0 -43 23
-88 50 -45 28 -84 50 -86 50 -3 0 -44 24 -93 54 -49 30 -98 57 -110 61 -12 3
-21 11 -21 16 0 5 -5 9 -11 9 -6 0 -63 31 -127 69 -64 38 -133 78 -152 88 -56
32 -491 283 -535 310 -22 13 -48 26 -57 30 -10 3 -18 9 -18 13 0 5 -12 13 -27
19 -16 6 -41 19 -58 29 -16 10 -57 34 -90 52 -33 18 -88 51 -123 72 -34 21
-67 38 -72 38 -6 0 -10 5 -10 10 0 6 -6 10 -12 10 -7 0 -41 18 -76 40 -34 22
-67 40 -72 40 -5 0 -15 6 -22 13 -7 7 -24 18 -38 24 -14 7 -46 25 -72 40 -106
63 -215 127 -248 145 -19 10 -48 27 -65 37 -16 10 -52 30 -78 44 -48 27 -74
43 -124 74 -16 10 -30 18 -33 18 -5 0 -18 8 -87 52 -16 10 -53 30 -83 46 -30
15 -61 34 -70 41 -8 8 -25 17 -37 20 -13 4 -23 12 -23 17 0 5 -5 9 -10 9 -6 0
-51 23 -100 51 -77 44 -99 52 -153 55 -34 1 -71 0 -81 -3z m111 -524 c21 -12
50 -30 65 -40 14 -11 28 -19 31 -19 2 0 65 -35 139 -78 74 -43 141 -81 149
-85 8 -4 28 -16 44 -26 17 -10 73 -43 125 -74 52 -30 115 -67 140 -81 25 -15
53 -29 63 -33 9 -3 17 -9 17 -14 0 -5 5 -9 10 -9 10 0 169 -88 180 -100 3 -3
30 -18 60 -34 30 -16 63 -36 74 -45 10 -9 19 -14 20 -12 0 3 20 -8 43 -22 24
-15 45 -27 48 -27 4 0 26 -13 50 -30 24 -16 46 -30 50 -30 3 0 83 -45 176
-100 94 -55 173 -100 176 -100 2 0 24 -14 49 -30 24 -17 44 -28 44 -24 0 4 8
0 18 -8 9 -9 35 -25 57 -37 22 -12 47 -26 55 -31 50 -32 294 -170 301 -170 5
0 9 -4 9 -9 0 -5 12 -14 28 -20 15 -7 36 -17 47 -24 12 -7 60 -34 108 -62 48
-27 87 -53 87 -57 0 -4 -19 -17 -42 -28 -24 -11 -63 -33 -88 -49 -25 -15 -70
-41 -100 -57 -30 -17 -74 -43 -97 -57 -24 -15 -47 -27 -53 -27 -5 0 -10 -3
-10 -7 0 -5 -10 -13 -23 -18 -46 -22 -112 -60 -115 -67 -2 -5 -7 -8 -11 -8 -7
0 -322 -177 -391 -220 -8 -5 -78 -45 -155 -90 -77 -45 -147 -85 -155 -90 -8
-5 -62 -37 -120 -70 -58 -33 -112 -65 -120 -70 -8 -5 -28 -17 -45 -25 -16 -8
-48 -26 -70 -40 -22 -13 -51 -30 -65 -37 -14 -6 -36 -19 -50 -29 -14 -9 -45
-28 -70 -41 -148 -84 -286 -163 -290 -168 -3 -3 -23 -14 -45 -25 -22 -11 -42
-22 -45 -25 -3 -3 -82 -50 -177 -104 l-172 -98 -33 20 c-18 11 -49 29 -68 40
-57 32 -163 93 -190 110 -14 9 -27 15 -30 15 -3 0 -16 7 -30 17 -14 10 -41 27
-60 37 -19 11 -91 53 -160 93 -69 40 -195 113 -280 162 -187 108 -170 98 -254
148 -37 22 -72 40 -76 40 -4 0 -13 7 -20 15 -7 8 -16 12 -21 9 -5 -3 -9 0 -9
5 0 6 -4 11 -9 11 -5 0 -56 28 -113 61 -108 65 -133 79 -210 122 -25 14 -63
36 -85 49 -21 14 -45 27 -53 31 -8 4 -22 11 -30 17 -8 6 -94 56 -190 111 -96
56 -191 110 -210 121 -19 12 -51 29 -70 40 -19 11 -48 28 -65 39 -16 10 -37
22 -45 26 -8 4 -57 31 -108 61 l-93 54 148 86 c81 47 163 93 181 103 18 9 38
22 45 27 7 5 37 23 67 39 30 16 86 48 124 71 37 23 70 42 73 42 2 0 28 16 58
35 30 19 55 32 55 29 0 -3 15 5 32 18 18 13 42 28 53 34 53 29 103 57 130 73
17 10 48 28 70 41 22 12 56 32 75 43 69 43 95 57 123 68 15 6 27 14 27 18 0 4
16 13 35 21 19 8 35 17 35 22 0 4 6 8 13 8 7 0 28 11 47 23 19 13 55 35 80 49
72 40 109 61 215 123 55 32 143 83 195 113 52 29 100 57 105 61 6 5 35 22 65
38 59 32 75 42 215 123 50 29 115 66 145 82 30 17 64 37 75 44 25 18 28 18 72
-7z m-2767 -1854 c7 -8 16 -15 19 -15 4 0 90 -48 192 -106 236 -137 243 -140
282 -162 31 -18 127 -74 157 -92 135 -80 190 -110 199 -110 6 0 11 -4 11 -10
0 -5 4 -10 9 -10 7 0 76 -38 189 -105 24 -14 120 -69 162 -93 19 -11 91 -52
160 -92 69 -40 146 -84 171 -99 25 -14 112 -64 193 -111 81 -47 164 -94 184
-106 20 -11 78 -45 127 -73 50 -29 108 -63 130 -76 22 -12 99 -56 170 -98
l130 -75 1 -1446 c0 -796 -2 -1449 -5 -1451 -4 -2 -27 9 -51 24 -25 15 -65 39
-90 53 -25 14 -61 34 -80 45 -19 11 -107 62 -195 113 -88 51 -176 101 -195
112 -167 95 -321 184 -350 203 -30 19 -70 42 -237 136 -18 11 -50 29 -70 41
-76 43 -145 83 -171 98 -28 15 -145 84 -172 100 -51 31 -312 180 -315 180 -2
0 -45 25 -95 55 -50 30 -95 55 -100 55 -6 0 -10 5 -10 10 0 6 -5 10 -11 10 -9
0 -92 47 -229 129 -19 11 -42 24 -50 28 -8 3 -32 17 -52 30 l-38 23 0 1450 c0
825 4 1450 9 1450 5 0 14 -7 21 -15z m3347 -1932 c193 -111 373 -215 400 -229
26 -15 53 -30 58 -34 6 -4 28 -18 50 -30 62 -34 367 -211 395 -229 14 -8 27
-16 30 -16 3 0 28 -14 55 -31 96 -59 298 -174 306 -174 5 0 9 -5 9 -12 0 -6 3
-9 6 -5 4 3 26 -7 50 -23 23 -17 45 -30 48 -30 3 0 29 -14 58 -31 143 -85 239
-139 247 -139 5 0 11 -4 13 -8 2 -5 38 -27 81 -51 42 -23 77 -46 77 -50 0 -4
-14 -14 -30 -22 -17 -8 -97 -53 -178 -100 -142 -84 -620 -361 -692 -402 -19
-11 -48 -28 -65 -38 -16 -11 -36 -22 -44 -25 -7 -4 -91 -52 -185 -107 -94 -55
-191 -111 -216 -125 -25 -14 -58 -33 -75 -43 -53 -32 -129 -75 -190 -109 -33
-18 -64 -36 -70 -41 -9 -6 -260 -152 -375 -217 -25 -14 -65 -38 -90 -53 -24
-15 -47 -26 -51 -24 -3 2 -6 591 -6 1309 0 1197 1 1304 16 1298 9 -3 174 -97
368 -209z m2127 -2818 c1 -718 -1 -1305 -4 -1305 -4 0 -243 135 -295 167 -11
7 -27 15 -35 19 -8 4 -26 15 -40 24 -14 9 -52 32 -85 50 -85 47 -106 59 -140
79 -41 25 -221 129 -270 156 -22 13 -132 77 -245 142 -113 65 -212 122 -220
126 -18 8 -53 30 -60 37 -3 3 -21 13 -40 23 -19 10 -44 23 -55 30 -11 7 -38
23 -60 35 -22 12 -53 31 -70 41 -16 10 -47 28 -68 40 -80 45 -177 101 -331
189 -87 51 -163 92 -167 92 -5 0 -9 5 -9 10 0 6 -6 10 -13 10 -7 0 -19 6 -25
13 -7 6 -17 12 -22 12 -6 0 -11 4 -11 10 -2 10 39 36 131 85 25 14 52 30 60
36 8 6 38 24 65 39 28 14 64 34 80 44 17 10 50 29 75 43 25 14 69 39 98 57 29
17 57 31 62 31 4 0 10 4 12 8 2 5 28 22 58 39 30 16 116 65 190 108 74 43 155
89 180 103 25 14 74 42 109 64 34 21 65 38 67 38 4 0 268 151 314 180 8 5 38
21 65 36 28 14 56 31 63 36 14 12 83 51 127 74 17 8 44 23 60 34 17 10 53 31
80 45 28 15 57 33 66 41 8 8 18 14 22 14 6 0 137 74 177 100 8 5 30 17 48 26
18 9 35 21 38 26 3 5 9 7 12 4 3 -3 6 -593 6 -1311z m-2719 -289 c11 -7 40
-24 65 -38 25 -14 63 -36 85 -48 78 -46 148 -85 193 -111 26 -14 130 -75 232
-134 102 -60 201 -117 220 -128 78 -42 389 -222 448 -259 35 -21 67 -38 72
-38 5 0 15 -6 22 -12 8 -7 29 -21 48 -32 75 -40 125 -69 135 -76 6 -4 33 -20
60 -36 95 -52 114 -63 152 -87 21 -13 45 -27 53 -30 8 -4 31 -17 50 -28 19
-12 123 -72 230 -134 196 -113 212 -122 330 -189 36 -21 69 -41 73 -45 5 -5
-45 -39 -110 -76 -65 -37 -134 -78 -153 -90 -29 -18 -442 -257 -560 -323 -19
-11 -97 -56 -174 -101 -76 -44 -140 -81 -141 -81 -2 0 -49 -27 -104 -60 -56
-33 -105 -60 -110 -60 -5 0 -11 -3 -13 -7 -1 -5 -16 -15 -33 -24 -16 -9 -102
-58 -190 -109 -88 -51 -234 -135 -325 -188 -91 -52 -178 -103 -195 -113 -16
-10 -46 -26 -65 -36 -19 -9 -37 -20 -40 -23 -3 -3 -36 -24 -75 -46 -38 -21
-90 -51 -115 -66 -104 -62 -86 -62 -201 5 -57 33 -119 68 -137 78 -18 11 -93
54 -165 96 -73 42 -145 84 -162 93 -16 8 -58 32 -91 53 -34 20 -67 37 -73 37
-6 0 -11 4 -11 8 0 4 -12 13 -27 20 -16 6 -41 20 -58 30 -70 44 -121 73 -137
79 -10 3 -18 9 -18 14 0 5 -5 9 -10 9 -6 0 -65 32 -133 71 -126 74 -161 94
-224 130 -32 18 -293 169 -343 199 -8 5 -44 25 -80 46 -36 20 -79 45 -97 55
-17 10 -50 29 -72 43 -22 15 -42 26 -45 26 -2 0 -69 38 -150 85 -80 47 -150
85 -156 85 -5 0 -10 5 -10 10 0 6 -5 10 -10 10 -6 0 -40 18 -76 40 -36 22 -69
40 -73 40 -3 0 -16 8 -29 18 l-23 18 28 14 c15 8 30 18 33 21 5 5 59 36 150
85 19 11 37 21 40 24 3 3 14 10 25 16 86 46 111 60 115 64 3 3 16 11 29 18 61
35 90 51 139 81 29 17 57 31 62 31 4 0 10 3 12 8 3 6 17 15 103 61 16 9 32 19
35 22 3 3 17 12 31 20 51 27 144 80 179 100 67 40 315 183 345 198 16 9 32 19
35 22 7 9 69 40 76 38 4 0 10 3 13 8 3 5 33 25 66 44 33 19 69 39 80 46 11 7
29 17 40 22 11 6 43 24 70 41 28 17 62 36 78 43 15 6 27 15 27 19 0 4 4 8 9 8
4 0 91 48 192 107 101 58 198 114 214 123 17 10 70 40 119 69 49 28 91 51 93
51 3 0 16 9 30 20 30 23 51 25 78 6z"/>
</g>
</svg>
